<svg width="1452" height="456" viewBox="0 0 1452 456" fill="none" xmlns="http://www.w3.org/2000/svg">
<path d="M1.13349 0L1.13351 455.663M726.567 0V455.663M46.4731 0L46.4731 455.663M771.906 0V455.663M91.8126 0L91.8127 455.663M817.246 0V455.663M137.152 0L137.152 455.663M862.585 0V455.663M182.492 0L182.492 455.663M907.925 0V455.663M227.831 0L227.831 455.663M953.265 0V455.663M273.171 0L273.171 455.663M998.604 0V455.663M318.511 0L318.511 455.663M1043.94 0V455.663M363.85 0L363.85 455.663M1089.28 0V455.663M409.19 0V455.663M1134.62 0V455.663M454.529 0V455.663M1179.96 0V455.663M499.869 0L499.869 455.663M1225.3 0V455.663M545.208 0V455.663M1270.64 0V455.663M590.548 0V455.663M1315.98 0V455.663M635.888 0V455.663M1361.32 0V455.663M681.227 0V455.663M1406.66 0V455.663M1450.87 0V455.663M0 1.13349L1452 1.13362M0 273.171L1452 273.171M0 91.8126L1452 91.8128M0 363.85L1452 363.85M0 182.492L1452 182.492M0 454.529L1452 454.529M0 46.4731L1452 46.4732M0 318.511L1452 318.511M0 137.152L1452 137.152M0 409.19L1452 409.19M0 227.831L1452 227.831" stroke="url(#paint0_linear_1_91)" stroke-width="1.13344"/>
<defs>
<linearGradient id="paint0_linear_1_91" x1="725.97" y1="456.019" x2="725.97" y2="171.007" gradientUnits="userSpaceOnUse">
<stop stop-color="#F1F5F9" stop-opacity="0"/>
<stop offset="1" stop-color="#F1F5F9"/>
</linearGradient>
</defs>
</svg>
