<svg width="1281" height="402" viewBox="0 0 1281 402" fill="none" xmlns="http://www.w3.org/2000/svg">
<path d="M1 0L1.00002 402M641 0V402M41 0L41 402M681 0V402M81 0L81 402M721 0V402M121 0L121 402M761 0V402M161 0L161 402M801 0V402M201 0L201 402M841 0V402M241 0L241 402M881 0V402M281 0L281 402M921 0V402M321 0L321 402M961 0V402M361 0V402M1001 0V402M401 0V402M1041 0V402M441 0L441 402M1081 0V402M481 0V402M1121 0V402M521 0V402M1161 0V402M561 0V402M1201 0V402M601 0V402M1241 0V402M1280 0V402M0 1L1281 1.00011M0 241L1281 241M0 81L1281 81.0001M0 321L1281 321M0 161L1281 161M0 401L1281 401M0 41L1281 41.0001M0 281L1281 281M0 121L1281 121M0 361L1281 361M0 201L1281 201" stroke="url(#paint0_linear_1_209)"/>
<defs>
<linearGradient id="paint0_linear_1_209" x1="640.474" y1="289.743" x2="640.474" y2="56.0716" gradientUnits="userSpaceOnUse">
<stop stop-color="#F1F5F9" stop-opacity="0"/>
<stop offset="0.544705" stop-color="#F1F5F9"/>
<stop offset="1" stop-color="#F1F5F9" stop-opacity="0"/>
</linearGradient>
</defs>
</svg>
